<svg width="380" height="1184" viewBox="0 0 380 1184" fill="none" xmlns="http://www.w3.org/2000/svg">
<path d="M-116.781 87.6601C-178.305 102.076 -255.553 164.598 -255.553 164.598L-236.91 1167.16C-236.91 1167.16 -178.145 1207.99 -128.942 1204.99C-47.4877 1200.01 9.15164 1127.69 90.6386 1120.29C181.129 1112.06 225.672 1152.47 316.165 1144.47C370.598 1139.65 454.082 1116.3 454.082 1116.3L429.199 -0.00654534C429.199 -0.00654534 403.85 18.9433 384.774 26.8484C341.389 44.8262 311.709 25.8255 265.055 32.7765C181.013 45.298 143.059 93.3128 58.7831 102.154C-11.1943 109.496 -47.9297 71.5273 -116.781 87.6601Z" fill="#194484" fill-opacity="0.07"/>
<path d="M-33.3435 69.5403C-84.1812 75.2238 -150 118.653 -150 118.653L-150 1156.18C-150 1156.18 -103.886 1195.37 -63.6106 1197.79C3.06365 1201.79 52.5079 1148.32 119.318 1150.34C193.51 1152.58 255.316 1168.08 329.5 1170.5C374.123 1171.96 416 1183.08 416 1183.08L416 52C416 52 394.472 64.9714 378.555 69.5403C342.356 79.9308 318.993 61.4666 280.621 62.5242C211.497 64.4292 178.386 99.8987 109.237 98.774C51.8192 97.8401 23.5487 63.1798 -33.3435 69.5403Z" fill="#194484"/>
</svg>
