<?xml version="1.0" standalone="no"?>
<!DOCTYPE svg PUBLIC "-//W3C//DTD SVG 20010904//EN"
 "http://www.w3.org/TR/2001/REC-SVG-20010904/DTD/svg10.dtd">
<svg version="1.0" xmlns="http://www.w3.org/2000/svg"
 width="100.000000pt" height="100.000000pt" viewBox="0 0 100.000000 100.000000"
 preserveAspectRatio="xMidYMid meet">
<metadata>
Created by potrace 1.14, written by Peter Selinger 2001-2017
</metadata>
<g transform="translate(0.000000,100.000000) scale(0.100000,-0.100000)"
fill="#000000" stroke="none">
<path d="M316 878 c-27 -46 -78 -134 -113 -196 l-66 -112 27 -40 c14 -22 26
-41 26 -44 0 -6 140 -250 149 -259 7 -7 91 116 91 135 0 5 -26 55 -57 111
l-57 100 39 71 c22 39 52 96 69 126 l29 55 -39 68 c-21 37 -41 67 -44 67 -3 0
-28 -37 -54 -82z"/>
<path d="M430 711 c-40 -70 -41 -73 -24 -92 14 -16 31 -19 96 -19 44 0 78 3
76 8 -5 10 -38 66 -74 124 l-31 51 -43 -72z"/>
<path d="M350 569 c0 -7 68 -130 76 -138 2 -3 59 -6 127 -6 67 -1 125 -3 129
-4 4 0 39 -55 78 -121 39 -66 74 -120 78 -121 33 -3 146 -3 151 1 4 3 -41 88
-100 189 -60 101 -110 189 -112 194 -4 12 -427 17 -427 6z"/>
<path d="M474 358 c-15 -24 -45 -72 -67 -108 -22 -36 -42 -67 -44 -69 -2 -3
-65 -4 -141 -4 l-139 1 -41 -69 -41 -69 37 -1 c20 0 123 -2 227 -5 l190 -4 92
167 c50 93 95 176 98 186 6 15 -1 17 -69 17 l-76 0 -26 -42z"/>
<path d="M157 307 c-31 -45 -57 -86 -57 -89 0 -4 39 -6 87 -4 77 2 87 4 96 23
7 17 1 34 -30 87 l-40 66 -56 -83z"/>
<path d="M610 257 c-23 -38 -38 -72 -36 -75 7 -6 206 -5 213 1 3 3 -13 36 -35
74 -36 62 -44 69 -72 69 -27 0 -35 -7 -70 -69z"/>
</g>
</svg>
