<svg width="1600" height="722" viewBox="0 0 1600 722" fill="none" xmlns="http://www.w3.org/2000/svg">
<path d="M248.314 97.9751C81.7575 77.8805 -166.022 0 -166.022 0L-193 641.365C-193 641.365 240.231 538.505 526.977 538.654C742.808 538.767 881.307 554.28 1096.08 574.874C1344.61 598.705 1713.45 650.377 1713.45 650.377L1732.8 190.389C1732.8 190.389 1324.56 95.6371 1048.26 72.4251C733.382 45.9722 561.614 135.774 248.314 97.9751Z" fill="#276ED8" fill-opacity="0.1"/>
<path d="M351 140.726C210.184 129.72 -0.999817 73 -0.999817 73V613.231C-0.999817 613.231 359.788 511.421 601 501.405C782.558 493.866 899.61 502.011 1081 511.731C1290.9 522.979 1603 553.38 1603 553.38V165.926C1603 165.926 1256.24 100.695 1023 90.9498C757.192 79.8442 615.881 161.427 351 140.726Z" fill="#276ED8"/>
</svg>
