<svg width="514" height="409" viewBox="0 0 514 409" fill="none" xmlns="http://www.w3.org/2000/svg">
<path opacity="0.04" d="M102.537 308.542C66.1801 376.883 316.754 383.817 370.537 359.042C424.32 334.267 435.85 239.878 417.037 209.542C411.17 200.137 489.495 265.055 486.037 254.266C478.506 230.66 489.266 124.804 476.037 104.542C464.601 87.0033 354.49 118.603 339.537 104.542C332.988 98.4581 265.037 12.0422 184.037 25.0422C124.862 34.5394 47.5397 87.8506 31.5365 131.042C15.5334 174.234 169.036 183.542 102.537 308.542Z" fill="#276ED8"/>
<path opacity="0.2" d="M217.876 167.62L230 165.34V154.47L217.876 152.38C216.945 147.914 215.178 143.734 212.746 140.029L219.701 129.824L212.005 122.128L201.952 129.235C198.247 126.803 194.085 125.055 189.601 124.124L187.321 112H176.451L174.361 124.124C169.895 125.055 165.715 126.822 162.009 129.254L151.824 122.299L144.128 129.995L151.235 140.048C148.803 143.753 147.054 147.933 146.123 152.399L134 154.679V165.549L146.123 167.639C147.054 172.124 148.822 176.285 151.254 179.991L144.299 190.176L151.995 197.872L162.066 190.765C165.772 193.197 169.952 194.964 174.418 195.876L176.698 208H187.568L189.658 195.876C194.142 194.945 198.304 193.178 202.009 190.746L212.195 197.701L219.891 190.005L212.784 179.952C215.197 176.266 216.945 172.105 217.876 167.62ZM182 182.518C169.572 182.518 159.501 172.428 159.501 160.019C159.501 147.61 169.572 137.52 182 137.52C194.427 137.52 204.499 147.591 204.499 160.019C204.499 172.447 194.427 182.518 182 182.518Z" fill="#84B5FF"/>
<path d="M364.18 150.642V258.91C364.18 261.694 361.925 263.949 359.141 263.949H194.039C191.255 263.949 189 261.694 189 258.91V150.642C189 144.218 194.21 139 200.642 139H352.538C358.97 139 364.18 144.218 364.18 150.642Z" fill="white" stroke="#84B5FF" stroke-miterlimit="10"/>
<path d="M360.89 284C349.903 284 341 292.903 341 303.89C341 314.876 349.903 323.779 360.89 323.779C371.876 323.779 380.779 314.876 380.779 303.89C380.779 292.903 371.876 284 360.89 284ZM360.89 318.823C352.633 318.823 345.946 312.136 345.946 303.88C345.946 295.624 352.633 288.937 360.89 288.937C369.146 288.937 375.833 295.624 375.833 303.88C375.833 312.136 369.146 318.823 360.89 318.823Z" fill="#66D6A0"/>
<path d="M237.772 81.976H209.988C208.894 81.976 208 81.0914 208 79.988C208 78.8941 208.885 78 209.988 78H237.772C238.866 78 239.76 78.8846 239.76 79.988C239.76 81.0819 238.866 81.976 237.772 81.976Z" fill="#66D6A0"/>
<path d="M237.772 91.8972H209.988C208.894 91.8972 208 91.0125 208 89.9091C208 88.8153 208.885 87.9211 209.988 87.9211H237.772C238.866 87.9211 239.76 88.8058 239.76 89.9091C239.76 91.003 238.866 91.8972 237.772 91.8972Z" fill="#66D6A0"/>
<path d="M364.18 150.642V151.13H189V150.642C189 144.218 194.21 139 200.642 139H352.538C358.97 139 364.18 144.218 364.18 150.642Z" fill="#84B5FF"/>
<path opacity="0.3" d="M337.575 145.627C337.575 146.465 336.899 147.141 336.061 147.141C335.222 147.141 334.547 146.465 334.547 145.627C334.547 144.788 335.222 144.113 336.061 144.113C336.891 144.113 337.575 144.788 337.575 145.627Z" fill="white"/>
<path opacity="0.3" d="M345.862 145.627C345.862 146.465 345.187 147.141 344.348 147.141C343.51 147.141 342.834 146.465 342.834 145.627C342.834 144.788 343.51 144.113 344.348 144.113C345.178 144.113 345.862 144.788 345.862 145.627Z" fill="white"/>
<path opacity="0.3" d="M353.784 145.627C353.784 146.465 353.108 147.141 352.27 147.141C351.431 147.141 350.755 146.465 350.755 145.627C350.755 144.788 351.431 144.113 352.27 144.113C353.108 144.113 353.784 144.788 353.784 145.627Z" fill="white"/>
<path d="M364.18 150.642V258.91C364.18 261.694 361.925 263.949 359.141 263.949H194.039C191.255 263.949 189 261.694 189 258.91V150.642C189 144.218 194.21 139 200.642 139H352.538C358.97 139 364.18 144.218 364.18 150.642Z" stroke="#84B5FF" stroke-miterlimit="10"/>
<path opacity="0.5" d="M276.341 304.219C291.993 304.27 304.69 301.643 304.701 298.351C304.712 295.059 292.032 292.349 276.38 292.297C260.728 292.246 248.03 294.873 248.02 298.165C248.009 301.457 260.689 304.168 276.341 304.219Z" fill="url(#paint0_radial)"/>
<path d="M276.828 278.047C276.838 281.587 275.593 289.986 273.077 289.558C272.533 289.468 271.882 288.919 271.186 288.064C269.061 285.474 266.479 280.108 265.021 276.432C264.228 274.426 263.76 272.922 263.892 272.64C264.675 270.91 275.893 275.894 276.619 276.538C276.751 276.664 276.828 277.222 276.828 278.047Z" fill="#84B5FF"/>
<path d="M263.888 272.64C263.029 274.27 273.225 279.208 276.742 276.855C276.742 276.855 265.026 270.478 263.888 272.64Z" fill="#276ED8"/>
<path d="M288.98 274.234C288.894 274.546 288.792 274.873 288.695 275.21C287.15 280.335 284.457 287.798 282.429 290.348C281.946 290.961 281.498 291.288 281.117 291.238C281.016 291.228 280.914 291.192 280.817 291.147C280.477 290.991 280.146 290.644 279.831 290.156V290.151C277.859 287.114 276.436 278.61 276.726 276.186C276.761 275.884 276.822 275.678 276.914 275.587C278.571 273.963 289.463 269.246 289.895 270.075C290.007 270.297 289.636 271.946 288.98 274.234Z" fill="#84B5FF"/>
<path d="M276.727 276.186C276.31 276.875 287.055 276.819 289.896 270.075C289.896 270.075 280.666 269.713 276.727 276.186Z" fill="#276ED8"/>
<path d="M259.354 202.123C259.944 202.434 259.893 203.063 258.678 202.907C257.464 202.751 256.803 201.806 256.935 201.625C257.062 201.444 258.694 201.771 259.354 202.123Z" fill="white"/>
<path d="M289.753 266.776C288.787 272.429 283.669 276.201 276.335 276.201C269.951 276.201 264.538 273.847 263.11 268.657C261.681 263.477 262.235 253.892 264.141 247.922C264.426 247.032 264.772 246.172 265.168 245.358L265.173 245.348C265.534 244.608 265.936 243.904 266.378 243.245C266.383 243.24 266.383 243.235 266.383 243.235C268.711 239.765 272.121 237.497 275.979 237.497C279.994 237.497 283.064 239.132 285.153 241.546C286.124 242.667 286.886 243.965 287.43 245.338C288.06 246.922 288.589 248.601 289.006 250.331C289.006 250.341 289.011 250.362 289.016 250.382C290.337 255.808 290.617 261.722 289.753 266.776Z" fill="#84B5FF"/>
<path opacity="0.3" d="M289.753 266.776C288.787 272.429 283.669 276.201 276.335 276.201C269.951 276.201 264.538 273.847 263.11 268.657C261.681 263.477 262.235 253.892 264.141 247.922C264.426 247.032 264.772 246.172 265.168 245.358L265.173 245.348C265.173 245.348 261.31 258.021 264.396 266.092C267.486 274.164 281.87 273.993 286.739 268.632C291.374 263.528 289.229 251.538 289.016 250.392C290.337 255.808 290.617 261.722 289.753 266.776Z" fill="#0D6EB7"/>
<path d="M263.385 263.417C264.478 255.828 270.628 250.683 277.464 251.322C284.828 252.011 288.788 258.966 288.686 264.936C288.579 270.905 284.173 275.567 276.264 275.567C268.356 275.567 262.363 270.518 263.385 263.417Z" fill="#84B5FF"/>
<path d="M263.456 264.046C264.549 256.457 270.699 251.312 277.535 251.951C284.899 252.64 288.859 259.595 288.757 265.564C288.65 271.534 284.244 276.196 276.335 276.196C268.432 276.201 262.434 271.147 263.456 264.046Z" fill="url(#paint1_radial)"/>
<path opacity="0.5" d="M285.154 241.545C283.593 243.97 274.988 245.383 270.018 244.935C265.687 244.543 266.348 243.386 266.378 243.24C266.383 243.235 266.383 243.23 266.383 243.23C268.711 239.76 272.122 237.492 275.98 237.492C279.995 237.497 283.065 239.132 285.154 241.545Z" fill="#276ED8"/>
<path d="M253.666 233.036C258.535 244.151 294.983 240.685 299.339 231.553C304.101 221.565 293.148 196.887 275.684 198.039C260.929 199.015 247.41 218.749 253.666 233.036Z" fill="#84B5FF"/>
<path d="M255.678 231.467C260.334 240.585 292.152 239.076 296.797 230.698C300.741 223.582 291.425 201.911 275.44 202.681C259.455 203.455 251.206 222.717 255.678 231.467Z" fill="#276ED8"/>
<path d="M290.221 220.725C289.596 222.385 281.204 222.194 281.215 221.595C281.265 218.281 283.06 213.926 286.409 213.956C289.865 213.986 291.39 217.632 290.221 220.725Z" fill="#66D6A0"/>
<path d="M261.946 220.946C262.668 222.571 271.034 221.912 270.988 221.314C270.749 218.004 268.716 213.76 265.372 213.976C261.921 214.197 260.604 217.924 261.946 220.946Z" fill="#66D6A0"/>
<path d="M271.135 227.082C269.875 227.384 272.512 231.553 276.746 231.553C280.502 231.553 282.622 227.268 282.144 227.082C281.666 226.896 279.415 228.048 276.279 228.048C273.143 228.048 271.664 226.956 271.135 227.082Z" fill="#84B5FF"/>
<path d="M265.926 245.815C265.916 248.848 265.484 253.228 264.096 256.768C261.794 262.632 258.338 270.01 258.236 270.241L258.231 270.246C256.122 271.519 253.59 271.453 251.984 271.222C251.008 271.081 250.373 270.88 250.373 270.88C250.373 270.88 251.09 264.166 254.82 256.557C256.691 252.735 259.08 249.18 261.138 246.559C261.148 246.549 261.158 246.534 261.169 246.524C261.189 246.489 261.219 246.459 261.245 246.424C261.26 246.403 261.275 246.388 261.286 246.368C261.301 246.353 261.316 246.333 261.321 246.318C261.341 246.293 261.357 246.273 261.377 246.253C261.382 246.248 261.387 246.243 261.387 246.243C261.392 246.238 261.397 246.232 261.397 246.232C263.486 243.607 265.184 242.018 265.54 242.209C265.748 242.32 265.936 243.753 265.926 245.815Z" fill="#276ED8"/>
<path d="M250.404 270.613C250.404 270.613 253.123 266.173 255.928 266.751C258.734 267.329 258.231 270.246 258.231 270.246C258.231 270.246 254.642 272.816 250.404 270.613Z" fill="#84B5FF"/>
<path d="M265.926 245.815C265.916 248.848 265.484 253.228 264.096 256.768C261.794 262.632 258.338 270.01 258.236 270.241L258.231 270.246L251.984 271.222C251.008 271.081 250.373 270.88 250.373 270.88C250.373 270.88 251.09 264.166 254.82 256.557C256.691 252.735 259.08 249.18 261.138 246.559C259.959 248.098 255.034 254.792 253.707 260.48C252.198 266.952 258.282 264.458 260.772 260.48C263.258 256.502 265.855 245.82 265.855 245.82H265.926V245.815Z" fill="#84B5FF"/>
<path d="M250.367 270.875C250.367 270.875 252.045 268.526 254.469 268.21C256.894 267.898 257.763 268.562 258.225 270.241C258.693 271.926 255.252 278.057 250.982 282.678C249.137 282.829 248.583 280.591 248.314 279.153C248.319 277.896 249.539 272.851 250.367 270.875Z" fill="#84B5FF"/>
<path d="M256.259 268.194C256.259 268.194 251.71 274.446 250.267 278.041C249.489 279.983 249.042 281.255 249.042 281.255C249.042 281.255 250.226 284.217 252.183 281.738C254.958 278.227 258.679 272.947 258.003 270.407C257.433 268.26 257.052 267.852 256.259 268.194Z" fill="#276ED8"/>
<path opacity="0.5" d="M252.426 273.953C252.426 273.953 253.061 277.287 255.099 277.785L255.42 269.784C255.42 269.779 253.036 272.922 252.426 273.953Z" fill="#84B5FF"/>
<path d="M254.419 271.685C254.114 272.454 254.704 277.493 255.258 278.067C255.812 278.635 257.093 277.674 257.448 276.654C257.804 275.633 259.405 270.07 257.347 268.285C257.347 268.28 255.69 268.461 254.419 271.685Z" fill="#84B5FF"/>
<path d="M286.727 246.145C286.737 249.178 287.169 253.558 288.557 257.098C290.859 262.962 294.315 270.34 294.417 270.571L294.422 270.576C296.531 271.849 299.062 271.783 300.669 271.552C301.644 271.411 302.28 271.21 302.28 271.21C302.28 271.21 301.563 264.496 297.832 256.887C295.962 253.065 293.573 249.509 291.515 246.889C291.505 246.879 291.494 246.864 291.484 246.854C291.464 246.819 291.433 246.789 291.408 246.754C291.393 246.733 291.377 246.718 291.367 246.698C291.352 246.683 291.337 246.663 291.332 246.648C291.311 246.623 291.296 246.603 291.276 246.583C291.271 246.578 291.266 246.573 291.266 246.573C291.261 246.567 291.255 246.562 291.255 246.562C289.167 243.937 287.469 242.348 287.113 242.539C286.905 242.65 286.717 244.083 286.727 246.145Z" fill="#276ED8"/>
<path d="M302.249 270.943C302.249 270.943 299.53 266.503 296.724 267.081C293.919 267.659 294.422 270.576 294.422 270.576C294.422 270.576 298.01 273.146 302.249 270.943Z" fill="#84B5FF"/>
<path d="M286.727 246.145C286.737 249.178 287.169 253.558 288.557 257.098C290.859 262.962 294.315 270.34 294.417 270.571L294.422 270.576L300.669 271.552C301.644 271.411 302.28 271.21 302.28 271.21C302.28 271.21 301.563 264.496 297.832 256.887C295.962 253.065 293.573 249.509 291.515 246.889C292.694 248.428 297.619 255.122 298.946 260.81C300.455 267.282 294.371 264.788 291.881 260.81C289.395 256.832 286.798 246.15 286.798 246.15H286.727V246.145Z" fill="#84B5FF"/>
<path d="M302.285 271.205C302.285 271.205 300.608 268.856 298.184 268.54C295.759 268.228 294.89 268.892 294.428 270.571C293.96 272.256 297.401 278.386 301.67 283.008C303.515 283.159 304.069 280.921 304.339 279.483C304.334 278.226 303.114 273.181 302.285 271.205Z" fill="#84B5FF"/>
<path d="M296.393 268.524C296.393 268.524 300.942 274.775 302.386 278.371C303.164 280.312 303.611 281.585 303.611 281.585C303.611 281.585 302.427 284.547 300.47 282.068C297.695 278.557 293.974 273.277 294.65 270.737C295.219 268.59 295.601 268.182 296.393 268.524Z" fill="#276ED8"/>
<path opacity="0.5" d="M300.227 274.283C300.227 274.283 299.591 277.617 297.553 278.115L297.233 270.114C297.233 270.109 299.617 273.252 300.227 274.283Z" fill="#84B5FF"/>
<path d="M298.234 272.015C298.539 272.784 297.949 277.823 297.395 278.397C296.841 278.965 295.56 278.004 295.204 276.983C294.849 275.963 293.248 270.4 295.306 268.615C295.306 268.61 296.963 268.791 298.234 272.015Z" fill="#84B5FF"/>
<path d="M267.55 188.7L265.367 187.191L266.419 185.089L263.9 183.573L264.787 181.617L262.555 180.259L263.518 177.873L261.604 176.173L259.427 177.404L263.723 190.096L267.55 188.7Z" fill="#06B25F"/>
<path d="M246.283 165.551L259.029 187.03L262.074 185.209L256.544 168.795L246.283 165.551Z" fill="#66D6A0"/>
<path d="M259.84 148.729C260.14 148.844 266.766 153.863 266.604 154.008C266.443 154.155 256.031 169.787 256.031 169.787L247.078 163.919L259.84 148.729Z" fill="#66D6A0"/>
<path d="M255.004 171.246C252.802 173.249 249.396 173.094 247.397 170.897C245.397 168.7 245.561 165.296 247.763 163.293C249.966 161.29 253.371 161.445 255.37 163.642C257.37 165.834 257.207 169.238 255.004 171.246Z" fill="#06B25F"/>
<path d="M253.242 169.31C252.208 170.248 250.615 170.176 249.679 169.145C248.742 168.118 248.818 166.521 249.851 165.583C250.885 164.644 252.479 164.716 253.415 165.747C254.349 166.776 254.274 168.369 253.242 169.31Z" fill="#66D6A0"/>
<path d="M282.497 186.127L284.815 184.819L283.962 182.632L286.612 181.346L285.913 179.322L288.261 178.165L287.526 175.702L289.591 174.178L291.644 175.602L286.179 187.858L282.497 186.127Z" fill="#06B25F"/>
<path d="M305.844 164.968L291.137 185.222L288.281 183.139L295.319 167.285L305.844 164.968Z" fill="#66D6A0"/>
<path d="M271.194 99.1976L282.696 108.075L280.66 142.254L269.651 144.003L271.194 99.1976Z" fill="#66D6A0"/>
<path d="M293.916 147.007C293.606 147.097 286.541 151.502 286.688 151.663C286.835 151.823 295.742 168.319 295.742 168.319L305.205 163.272L293.916 147.007Z" fill="#66D6A0"/>
<path d="M260.003 147.36C263.593 140.815 288.072 139.26 292.391 144.914C296.329 150.07 294.409 153.418 291.826 154.768C287.706 156.916 286.827 149.485 282.772 149.698C278.718 149.91 273.852 150.252 270.229 150.618C266.191 151.027 266.425 158.506 262.033 157.016C259.277 156.078 256.879 153.059 260.003 147.36Z" fill="#06B25F"/>
<path d="M296.623 169.861C298.628 172.054 302.035 172.2 304.233 170.191C306.432 168.183 306.585 164.778 304.581 162.585C302.574 160.394 299.17 160.246 296.971 162.255C294.775 164.266 294.619 167.668 296.623 169.861Z" fill="#06B25F"/>
<path d="M260.558 153.451C261.388 154.565 262.969 154.797 264.086 153.965C265.203 153.132 265.439 151.552 264.609 150.437C263.776 149.32 262.197 149.09 261.08 149.923C259.961 150.753 259.728 152.331 260.558 153.451Z" fill="#66D6A0"/>
<path d="M298.561 168.091C299.501 169.115 301.097 169.185 302.126 168.246C303.153 167.305 303.226 165.71 302.289 164.683C301.35 163.659 299.754 163.589 298.725 164.528C297.693 165.469 297.619 167.064 298.561 168.091Z" fill="#66D6A0"/>
<path d="M287.811 150.775C288.642 151.89 290.223 152.122 291.34 151.289C292.457 150.457 292.692 148.876 291.862 147.762C291.032 146.647 289.451 146.415 288.334 147.247C287.215 148.077 286.979 149.658 287.811 150.775Z" fill="#66D6A0"/>
<path d="M278.402 90.6985H358.272V92.6069H278.402V90.6985Z" fill="#66D6A0"/>
<path d="M353.985 88.0281H361.765V103.17H353.985V88.0281Z" fill="#66D6A0"/>
<path d="M272.881 87H280.66V102.142H272.881V87Z" fill="#66D6A0"/>
<path d="M359.73 99.2813L350.689 114.706L278.405 112.847L274.849 98.759L359.73 99.2813Z" fill="#66D6A0"/>
<path d="M445.233 195.459C443.251 197.496 401.021 177.187 401.021 177.187L381.001 193.761L444.212 245.333L445.233 195.459Z" fill="#66D6A0"/>
<path d="M401.021 177.187L363.272 100.116L350.689 114.706L381.001 193.761L401.021 177.187Z" fill="#66D6A0"/>
<path d="M439.791 186.42V244.532C439.791 247.222 441.977 249.403 444.673 249.403H474.462C477.158 249.403 479.344 247.222 479.344 244.532V186.42C479.344 183.73 477.158 181.549 474.462 181.549H444.673C441.977 181.549 439.791 183.73 439.791 186.42Z" fill="#66D6A0"/>
<path d="M391.823 199.223C384.168 199.223 377.962 193.032 377.962 185.395C377.962 177.758 384.168 171.567 391.823 171.567C399.477 171.567 405.683 177.758 405.683 185.395C405.683 193.032 399.477 199.223 391.823 199.223Z" fill="#06B25F"/>
<path d="M348.052 108.547C348.052 113.954 352.444 118.336 357.863 118.336C363.282 118.336 367.674 113.954 367.674 108.547C367.674 103.141 363.282 98.759 357.863 98.759C352.444 98.759 348.052 103.141 348.052 108.547Z" fill="#06B25F"/>
<path d="M476.683 180.412V249.351C476.683 252.471 479.064 255 482 255V174.763C479.064 174.763 476.683 177.292 476.683 180.412Z" fill="#06B25F"/>
<path d="M393.284 178.494C393.284 177.476 360.892 108.547 360.892 108.547L356.3 110.039L384.356 182.564L393.284 178.494Z" fill="#06B25F"/>
<path d="M353.119 108.541C353.119 111.162 355.249 113.284 357.873 113.284C360.497 113.284 362.627 111.159 362.627 108.541C362.627 105.92 360.497 103.798 357.873 103.798C355.249 103.798 353.119 105.92 353.119 108.541Z" fill="#66D6A0"/>
<path d="M268.621 106.32C268.621 110.81 272.269 114.453 276.772 114.453C281.273 114.453 284.924 110.814 284.924 106.32C284.924 101.83 281.276 98.1875 276.772 98.1875C272.272 98.1875 268.621 101.827 268.621 106.32Z" fill="#06B25F"/>
<path d="M350.69 104.504L283.015 103.794V107.073L350.69 110.971V104.504Z" fill="#06B25F"/>
<path d="M273.128 105.775C273.128 107.782 274.758 109.408 276.769 109.408C278.781 109.408 280.41 107.782 280.41 105.775C280.41 103.768 278.781 102.142 276.769 102.142C274.761 102.142 273.128 103.768 273.128 105.775Z" fill="#66D6A0"/>
<path d="M386 185.893C386 189.148 388.644 191.785 391.906 191.785C395.169 191.785 397.813 189.148 397.813 185.893C397.813 182.638 395.169 180 391.906 180C388.644 180 386 182.638 386 185.893Z" fill="#66D6A0"/>
<g filter="url(#filter0_d)">
<rect x="153" y="228" width="58" height="57" rx="6" fill="#276ED8"/>
</g>
<g clip-path="url(#clip0)">
<path d="M166 256C166 254.503 169.532 252.555 175.595 251.712C175.477 253.098 175.417 254.535 175.417 256C175.417 257.464 175.477 258.902 175.595 260.288C169.532 259.445 166 257.497 166 256Z" fill="white"/>
<path d="M182 272C180.503 272 178.555 268.468 177.712 262.405C179.098 262.523 180.536 262.583 182 262.583C183.465 262.583 184.902 262.523 186.289 262.405C185.445 268.468 183.498 272 182 272Z" fill="white"/>
<path d="M188.404 260.288C188.522 258.902 188.583 257.464 188.583 256C188.583 254.538 188.522 253.103 188.405 251.719C189.665 251.895 190.86 252.123 191.959 252.399L191.544 252.577C191.069 252.782 190.849 253.333 191.054 253.809C191.258 254.285 191.81 254.504 192.285 254.299L194.864 253.19C195.34 252.985 195.559 252.434 195.355 251.958L194.245 249.379C194.092 249.025 193.746 248.812 193.383 248.812C193.26 248.812 193.134 248.837 193.013 248.889C192.537 249.094 192.318 249.645 192.522 250.121L192.758 250.668C191.37 250.302 189.832 250.011 188.202 249.801C187.914 247.554 187.468 245.488 186.881 243.727C186.424 242.355 185.901 241.225 185.322 240.348C192.556 241.882 198 248.317 198 256C198 257.497 194.468 259.445 188.404 260.288Z" fill="white"/>
<path d="M177.493 260.507C177.364 259.111 177.292 257.606 177.292 256C177.292 254.394 177.364 252.889 177.493 251.493C178.889 251.364 180.394 251.292 182 251.292C183.537 251.292 185.053 251.363 186.508 251.499C186.636 252.893 186.708 254.396 186.708 256C186.708 257.606 186.636 259.111 186.507 260.507C185.111 260.636 183.606 260.708 182 260.708C180.394 260.708 178.889 260.636 177.493 260.507Z" fill="white"/>
<path d="M182 249.417C180.536 249.417 179.098 249.478 177.712 249.595C178.555 243.532 180.503 240 182 240C183.498 240 185.446 243.533 186.289 249.598C184.896 249.478 183.456 249.417 182 249.417Z" fill="white"/>
<path d="M178.677 240.348C178.098 241.225 177.576 242.355 177.118 243.727C176.532 245.487 176.086 247.552 175.798 249.798C173.551 250.086 171.487 250.532 169.727 251.118C168.354 251.576 167.225 252.099 166.348 252.677C167.654 246.516 172.516 241.654 178.677 240.348Z" fill="white"/>
<path d="M197.652 259.323C196.345 265.484 191.483 270.346 185.322 271.652C185.901 270.775 186.424 269.645 186.881 268.273C187.468 266.513 187.914 264.448 188.201 262.202C190.448 261.914 192.513 261.468 194.273 260.882C195.645 260.424 196.775 259.901 197.652 259.323Z" fill="white"/>
<path d="M169.726 260.882C171.486 261.468 173.551 261.914 175.798 262.202C176.086 264.448 176.531 266.513 177.118 268.273C177.575 269.645 178.098 270.775 178.677 271.652C172.516 270.346 167.654 265.484 166.347 259.323C167.224 259.901 168.354 260.424 169.726 260.882Z" fill="white"/>
</g>
<defs>
<filter id="filter0_d" x="147" y="222" width="80" height="79" filterUnits="userSpaceOnUse" color-interpolation-filters="sRGB">
<feFlood flood-opacity="0" result="BackgroundImageFix"/>
<feColorMatrix in="SourceAlpha" type="matrix" values="0 0 0 0 0 0 0 0 0 0 0 0 0 0 0 0 0 0 127 0"/>
<feMorphology radius="3" operator="dilate" in="SourceAlpha" result="effect1_dropShadow"/>
<feOffset dx="5" dy="5"/>
<feGaussianBlur stdDeviation="4"/>
<feColorMatrix type="matrix" values="0 0 0 0 0 0 0 0 0 0 0 0 0 0 0 0 0 0 0.2 0"/>
<feBlend mode="normal" in2="BackgroundImageFix" result="effect1_dropShadow"/>
<feBlend mode="normal" in="SourceGraphic" in2="effect1_dropShadow" result="shape"/>
</filter>
<radialGradient id="paint0_radial" cx="0" cy="0" r="1" gradientUnits="userSpaceOnUse" gradientTransform="translate(276.361 298.26) rotate(0.187749) scale(28.3461 5.95771)">
<stop stop-color="#7B7EC9"/>
<stop offset="0.3883" stop-color="#BFD8F5"/>
<stop offset="1" stop-color="white"/>
</radialGradient>
<radialGradient id="paint1_radial" cx="0" cy="0" r="1" gradientUnits="userSpaceOnUse" gradientTransform="translate(276.471 272.427) scale(18.7404 18.5428)">
<stop stop-color="#81D884"/>
<stop offset="1" stop-color="#2DA531"/>
</radialGradient>
<clipPath id="clip0">
<rect width="32" height="32" fill="white" transform="matrix(1 0 0 -1 166 272)"/>
</clipPath>
</defs>
</svg>
